<svg width="1280" height="720" xmlns="http://www.w3.org/2000/svg" xmlns:xlink="http://www.w3.org/1999/xlink" overflow="hidden"><defs><clipPath id="clip0"><rect x="0" y="0" width="1280" height="720"/></clipPath><clipPath id="clip1"><rect x="1060" y="370" width="73" height="73"/></clipPath><clipPath id="clip2"><rect x="1060" y="370" width="73" height="73"/></clipPath><clipPath id="clip3"><rect x="1060" y="370" width="73" height="73"/></clipPath><clipPath id="clip4"><rect x="1065" y="537" width="73" height="73"/></clipPath><clipPath id="clip5"><rect x="1065" y="537" width="73" height="73"/></clipPath><clipPath id="clip6"><rect x="1065" y="537" width="73" height="73"/></clipPath><clipPath id="clip7"><rect x="67" y="216" width="73" height="73"/></clipPath><clipPath id="clip8"><rect x="67" y="216" width="73" height="73"/></clipPath><clipPath id="clip9"><rect x="67" y="216" width="73" height="73"/></clipPath></defs><g clip-path="url(#clip0)"><rect x="0" y="0" width="1280" height="720" fill="#FFFFFF"/><path d="M685.5 434.167 767.9 434.167 767.9 573.1 766.567 571.767 840.967 571.767 840.967 574.433 765.233 574.433 765.233 435.5 766.567 436.833 685.5 436.833ZM839.633 569.1 847.633 573.1 839.633 577.1Z" fill="#4472C4"/><path d="M424.5 357.334C424.5 344.171 435.171 333.5 448.334 333.5L713.666 333.5C726.829 333.5 737.5 344.171 737.5 357.334L737.5 452.666C737.5 465.829 726.829 476.5 713.666 476.5L448.334 476.5C435.171 476.5 424.5 465.829 424.5 452.666Z" stroke="#2F528F" stroke-width="1.33333" stroke-miterlimit="8" fill="#FFE699" fill-rule="evenodd"/><text font-family="Calibri,Calibri_MSFontService,sans-serif" font-weight="400" font-size="24" transform="translate(532.877 412)">Processor</text><path d="M842.5 368.667C842.5 358.634 850.634 350.5 860.667 350.5L961.333 350.5C971.366 350.5 979.5 358.634 979.5 368.667L979.5 441.333C979.5 451.366 971.366 459.5 961.333 459.5L860.667 459.5C850.634 459.5 842.5 451.366 842.5 441.333Z" stroke="#2F528F" stroke-width="1.33333" stroke-miterlimit="8" fill="#F8CBAD" fill-rule="evenodd"/><text font-family="Calibri,Calibri_MSFontService,sans-serif" font-weight="400" font-size="24" transform="translate(879.7 397)">Motor<tspan font-size="24" x="1.16663" y="29">Drive</tspan><tspan font-size="24" x="52.4333" y="29">r</tspan></text><path d="M737.5 403.167 836.167 403.167 836.167 405.833 737.5 405.833ZM834.833 400.5 842.833 404.5 834.833 408.5Z" fill="#4472C4"/><path d="M1031.5 374.667C1031.5 365.738 1038.74 358.5 1047.67 358.5L1152.33 358.5C1161.26 358.5 1168.5 365.738 1168.5 374.667L1168.5 439.333C1168.5 448.262 1161.26 455.5 1152.33 455.5L1047.67 455.5C1038.74 455.5 1031.5 448.262 1031.5 439.333Z" stroke="#2F528F" stroke-width="1.33333" stroke-miterlimit="8" fill="#BDD7EE" fill-rule="evenodd"/><g clip-path="url(#clip1)"><g clip-path="url(#clip2)"><g clip-path="url(#clip3)"><path d="M1096.5 415.625C1091.48 415.625 1087.38 411.519 1087.38 406.5 1087.38 401.481 1091.48 397.375 1096.5 397.375 1101.52 397.375 1105.62 401.481 1105.62 406.5 1105.62 411.519 1101.52 415.625 1096.5 415.625ZM1117.03 400.797C1116.57 399.124 1115.89 397.527 1115.05 396.082L1116.96 390.379 1112.62 386.045 1106.92 387.946C1105.4 387.109 1103.8 386.425 1102.13 385.969L1099.54 380.646 1093.46 380.646 1090.8 385.969C1089.12 386.425 1087.53 387.109 1086.08 387.946L1080.38 386.045 1076.04 390.379 1077.95 396.082C1077.11 397.603 1076.43 399.2 1075.97 400.873L1070.65 403.458 1070.65 409.542 1075.97 412.203C1076.43 413.876 1077.11 415.473 1077.95 416.918L1076.04 422.621 1080.38 426.955 1086.08 425.054C1087.6 425.891 1089.2 426.575 1090.87 427.031L1093.53 432.354 1099.62 432.354 1102.28 427.031C1103.95 426.575 1105.55 425.891 1106.99 425.054L1112.7 426.955 1117.03 422.621 1115.13 416.918C1115.97 415.397 1116.65 413.8 1117.11 412.127L1122.43 409.466 1122.43 403.382 1117.03 400.797Z"/></g></g></g><text font-family="Calibri,Calibri_MSFontService,sans-serif" font-weight="400" font-size="24" transform="translate(1068 489)">Wheel<tspan font-size="24" x="0" y="29">Motors</tspan></text><path d="M847.5 536.667C847.5 526.634 855.634 518.5 865.667 518.5L967.333 518.5C977.366 518.5 985.5 526.634 985.5 536.667L985.5 609.333C985.5 619.366 977.366 627.5 967.333 627.5L865.667 627.5C855.634 627.5 847.5 619.366 847.5 609.333Z" stroke="#2F528F" stroke-width="1.33333" stroke-miterlimit="8" fill="#F8CBAD" fill-rule="evenodd"/><text font-family="Calibri,Calibri_MSFontService,sans-serif" font-weight="400" font-size="24" transform="translate(884.767 566)">Motor<tspan font-size="24" x="1.16669" y="29">Drive</tspan><tspan font-size="24" x="52.4333" y="29">r</tspan></text><path d="M1036.5 540.667C1036.5 531.738 1043.74 524.5 1052.67 524.5L1158.33 524.5C1167.26 524.5 1174.5 531.738 1174.5 540.667L1174.5 605.333C1174.5 614.262 1167.26 621.5 1158.33 621.5L1052.67 621.5C1043.74 621.5 1036.5 614.262 1036.5 605.333Z" stroke="#2F528F" stroke-width="1.33333" stroke-miterlimit="8" fill="#BDD7EE" fill-rule="evenodd"/><g clip-path="url(#clip4)"><g clip-path="url(#clip5)"><g clip-path="url(#clip6)"><path d="M1101.5 582.625C1096.48 582.625 1092.38 578.519 1092.38 573.5 1092.38 568.481 1096.48 564.375 1101.5 564.375 1106.52 564.375 1110.62 568.481 1110.62 573.5 1110.62 578.519 1106.52 582.625 1101.5 582.625ZM1122.03 567.797C1121.57 566.124 1120.89 564.527 1120.05 563.082L1121.96 557.379 1117.62 553.045 1111.92 554.946C1110.4 554.109 1108.8 553.425 1107.13 552.969L1104.54 547.646 1098.46 547.646 1095.8 552.969C1094.12 553.425 1092.53 554.109 1091.08 554.946L1085.38 553.045 1081.04 557.379 1082.95 563.082C1082.11 564.603 1081.43 566.2 1080.97 567.873L1075.65 570.458 1075.65 576.542 1080.97 579.203C1081.43 580.876 1082.11 582.473 1082.95 583.918L1081.04 589.621 1085.38 593.955 1091.08 592.054C1092.6 592.891 1094.2 593.575 1095.87 594.031L1098.53 599.354 1104.62 599.354 1107.28 594.031C1108.95 593.575 1110.55 592.891 1111.99 592.054L1117.7 593.955 1122.03 589.621 1120.13 583.918C1120.97 582.397 1121.65 580.8 1122.11 579.127L1127.43 576.466 1127.43 570.382 1122.03 567.797Z"/></g></g></g><path d="M985.5 572.167 1030.3 572.167 1030.3 574.833 985.5 574.833ZM1028.97 569.5 1036.97 573.5 1028.97 577.5Z" fill="#4472C4"/><path d="M843.5 210.667C843.5 200.634 851.634 192.5 861.667 192.5L962.333 192.5C972.366 192.5 980.5 200.634 980.5 210.667L980.5 283.333C980.5 293.366 972.366 301.5 962.333 301.5L861.667 301.5C851.634 301.5 843.5 293.366 843.5 283.333Z" stroke="#2F528F" stroke-width="1.33333" stroke-miterlimit="8" fill="#C5E0B4" fill-rule="evenodd"/><text font-family="Calibri,Calibri_MSFontService,sans-serif" font-weight="400" font-size="24" transform="translate(887.907 240)">Edge<tspan font-size="24" x="-13.9" y="29">Sensors</tspan></text><path d="M0-1.33333 263.733-1.33333 263.733 79.7333 261.067 79.7333 261.067 0 262.4 1.33333 0 1.33333ZM266.4 78.3999 262.4 86.3999 258.4 78.3999Z" fill="#4472C4" transform="matrix(-1 1.22465e-16 1.22465e-16 1 842.9 246.5)"/><path d="M529 550.834C529 543.194 535.194 537 542.834 537L724.166 537C731.806 537 738 543.194 738 550.834L738 606.166C738 613.806 731.806 620 724.166 620L542.834 620C535.194 620 529 613.806 529 606.166Z" stroke="#FFFFFF" stroke-width="2" stroke-miterlimit="8" fill="#5B9BD5" fill-rule="evenodd"/><text fill="#FFFFFF" font-family="Calibri,Calibri_MSFontService,sans-serif" font-weight="400" font-size="24" transform="translate(576.623 571)">Soap/water <tspan font-size="24" x="9.46002" y="29">dispenser</tspan></text><path d="M634.833 478.5 634.833 531.033 632.167 531.033 632.167 478.5ZM637.5 529.7 633.5 537.7 629.5 529.7Z" fill="#4472C4"/><path d="M164.5 370.667C164.5 360.634 172.634 352.5 182.667 352.5L289.333 352.5C299.366 352.5 307.5 360.634 307.5 370.667L307.5 443.333C307.5 453.366 299.366 461.5 289.333 461.5L182.667 461.5C172.634 461.5 164.5 453.366 164.5 443.333Z" stroke="#2F528F" stroke-width="1.33333" stroke-miterlimit="8" fill="#D0CECE" fill-rule="evenodd"/><text font-family="Calibri,Calibri_MSFontService,sans-serif" font-weight="400" font-size="24" transform="translate(184.933 399)">Rail motor <tspan font-size="24" x="21" y="29">Driver</tspan></text><path d="M0.0214249-1.33316 110.156 0.436774 110.113 3.1031-0.0214249 1.33316ZM108.865-2.25097 116.8 1.87706 108.737 5.74799Z" fill="#4472C4" transform="matrix(-1 0 0 1 424.3 404.5)"/><path d="M979.549 403.168 1024.09 404.8 1023.99 407.465 979.451 405.832ZM1022.85 402.087 1030.7 406.377 1022.56 410.081Z" fill="#4472C4"/><rect x="266.5" y="87.5001" width="210" height="128" stroke="#2F528F" stroke-width="1.33333" stroke-miterlimit="8" fill="#FFC000"/><text font-family="Calibri,Calibri_MSFontService,sans-serif" font-weight="400" font-size="24" transform="translate(345.667 159)">Flash</text><path d="M6.66666-1.33333 60.0643-1.33333 60.0643 115.733 58.731 114.4 110.795 114.4 110.795 117.067 57.3976 117.067 57.3976 0 58.731 1.33333 6.66666 1.33333ZM8 4 0 0 8-4ZM109.462 111.733 117.462 115.733 109.462 119.733Z" fill="#4472C4" transform="matrix(1.83697e-16 1 1 -1.83697e-16 371.5 215.5)"/><text font-family="Calibri,Calibri_MSFontService,sans-serif" font-weight="400" font-size="24" transform="translate(413.63 255)">SPI</text><path d="M283 545.834C283 538.194 289.194 532 296.834 532L478.166 532C485.806 532 492 538.194 492 545.834L492 601.166C492 608.806 485.806 615 478.166 615L296.834 615C289.194 615 283 608.806 283 601.166Z" stroke="#FFFFFF" stroke-width="2" stroke-miterlimit="8" fill="#A14F9B" fill-rule="evenodd"/><text fill="#FFFFFF" font-family="Calibri,Calibri_MSFontService,sans-serif" font-weight="400" font-size="24" transform="translate(303.2 567)">Soap/water Level <tspan font-size="24" x="52.3667" y="29">sensor</tspan></text><path d="M387.167 532.777 387.167 503.305 581.033 503.305 579.7 504.639 579.7 483.167 582.367 483.167 582.367 505.972 388.5 505.972 389.833 504.639 389.833 532.777ZM577.033 484.5 581.033 476.5 585.033 484.5Z" fill="#4472C4"/><path d="M38.5001 220.667C38.5001 211.738 45.7383 204.5 54.6671 204.5L159.333 204.5C168.262 204.5 175.5 211.738 175.5 220.667L175.5 285.333C175.5 294.262 168.262 301.5 159.333 301.5L54.6671 301.5C45.7383 301.5 38.5001 294.262 38.5001 285.333Z" stroke="#2F528F" stroke-width="1.33333" stroke-miterlimit="8" fill="#BDD7EE" fill-rule="evenodd"/><g clip-path="url(#clip7)"><g clip-path="url(#clip8)"><g clip-path="url(#clip9)"><path d="M103.5 261.625C98.4813 261.625 94.375 257.519 94.375 252.5 94.375 247.481 98.4813 243.375 103.5 243.375 108.519 243.375 112.625 247.481 112.625 252.5 112.625 257.519 108.519 261.625 103.5 261.625ZM124.031 246.797C123.575 245.124 122.891 243.527 122.054 242.082L123.955 236.379 119.621 232.045 113.918 233.946C112.397 233.109 110.8 232.425 109.127 231.969L106.542 226.646 100.458 226.646 97.7969 231.969C96.124 232.425 94.5271 233.109 93.0823 233.946L87.3792 232.045 83.0448 236.379 84.9458 242.082C84.1094 243.603 83.425 245.2 82.9688 246.873L77.6458 249.458 77.6458 255.542 82.9688 258.203C83.425 259.876 84.1094 261.473 84.9458 262.918L83.0448 268.621 87.3792 272.955 93.0823 271.054C94.6031 271.891 96.2 272.575 97.8729 273.031L100.534 278.354 106.618 278.354 109.279 273.031C110.952 272.575 112.549 271.891 113.994 271.054L119.697 272.955 124.031 268.621 122.13 262.918C122.967 261.397 123.651 259.8 124.107 258.127L129.43 255.466 129.43 249.382 124.031 246.797Z"/></g></g></g><path d="M164.367 408.177 105.167 408.177 105.167 308.167 107.833 308.167 107.833 406.844 106.5 405.51 164.367 405.51ZM102.5 309.5 106.5 301.5 110.5 309.5Z" fill="#4472C4"/><text font-family="Calibri,Calibri_MSFontService,sans-serif" font-weight="400" font-size="24" transform="translate(66.5333 155)">Rail<tspan font-size="24" x="0" y="29">Motors</tspan></text></g></svg>