<svg width="1280" height="720" xmlns="http://www.w3.org/2000/svg" xmlns:xlink="http://www.w3.org/1999/xlink" overflow="hidden"><defs><clipPath id="clip0"><rect x="0" y="0" width="1280" height="720"/></clipPath><clipPath id="clip1"><rect x="327" y="287" width="66" height="64"/></clipPath><clipPath id="clip2"><rect x="327" y="287" width="66" height="64"/></clipPath><clipPath id="clip3"><rect x="327" y="287" width="66" height="64"/></clipPath></defs><g clip-path="url(#clip0)"><rect x="0" y="0" width="1280" height="720" fill="#FFFFFF"/><rect x="95.5001" y="60.5001" width="1097" height="599" stroke="#2F528F" stroke-width="1.33333" stroke-miterlimit="8" fill="#F2F2F2"/><path d="M120.5 107.5C120.5 99.7681 126.544 93.5001 134 93.5001 141.456 93.5001 147.5 99.7681 147.5 107.5 147.5 115.232 141.456 121.5 134 121.5 126.544 121.5 120.5 115.232 120.5 107.5ZM141.423 111.75C143.638 107.408 142.112 101.985 138.012 99.6377 135.477 98.1858 132.417 98.2056 129.898 99.69ZM126.578 103.25C124.362 107.592 125.889 113.015 129.988 115.362 132.524 116.814 135.584 116.795 138.102 115.31Z" stroke="#2F528F" stroke-width="1.33333" stroke-miterlimit="8" fill="#4472C4" fill-rule="evenodd"/><path d="M1133.5 107.5C1133.5 99.7681 1139.54 93.5001 1147 93.5001 1154.46 93.5001 1160.5 99.7681 1160.5 107.5 1160.5 115.232 1154.46 121.5 1147 121.5 1139.54 121.5 1133.5 115.232 1133.5 107.5ZM1154.42 111.75C1156.64 107.408 1155.11 101.985 1151.01 99.6377 1148.48 98.1858 1145.42 98.2056 1142.9 99.69ZM1139.58 103.25C1137.36 107.592 1138.89 113.015 1142.99 115.362 1145.52 116.814 1148.58 116.795 1151.1 115.31Z" stroke="#2F528F" stroke-width="1.33333" stroke-miterlimit="8" fill="#4472C4" fill-rule="evenodd"/><path d="M147 107 1133 107" stroke="#4472C4" stroke-width="8" stroke-miterlimit="8" fill="none" fill-rule="evenodd"/><text font-family="Calibri,Calibri_MSFontService,sans-serif" font-weight="400" font-size="32" transform="translate(540.8 96)">Detachable top rail</text><path d="M301.5 297.167C301.5 290.171 307.171 284.5 314.167 284.5L413.833 284.5C420.829 284.5 426.5 290.171 426.5 297.167L426.5 347.833C426.5 354.829 420.829 360.5 413.833 360.5L314.167 360.5C307.171 360.5 301.5 354.829 301.5 347.833Z" stroke="#2F528F" stroke-width="1.33333" stroke-miterlimit="8" fill="#F4B183" fill-rule="evenodd"/><g clip-path="url(#clip1)"><g clip-path="url(#clip2)"><g clip-path="url(#clip3)"><path d="M34.0153 38.3333C34.0153 35.0853 27.1487 33.3333 20.682 33.3333 14.2153 33.3333 7.34867 35.0853 7.34867 38.3333 7.34993 38.5767 7.39067 38.8183 7.46933 39.0487L7.60267 39.7587C4.48267 44.316 4.00267 49.1587 6.40733 52.1507 7.84667 53.9447 10.1207 54.896 12.904 54.896 13.3835 54.8952 13.8627 54.8685 14.3393 54.816 18.0043 54.3055 21.4526 52.7774 24.2927 50.4053 25.0173 49.8217 25.7073 49.1964 26.3593 48.5327L26.534 48.3527 26.5893 48.3827C27.1034 48.6681 27.7086 48.7415 28.276 48.5873 29.5232 48.2629 30.2713 46.9889 29.9469 45.7418 29.6225 44.4946 28.3485 43.7465 27.1013 44.0709 26.3039 44.2783 25.6749 44.8909 25.4467 45.6827 25.2785 46.2336 25.3301 46.8283 25.5907 47.342L25.6133 47.39 25.5127 47.494C24.8651 48.1577 24.1787 48.7826 23.4573 49.3653 20.8156 51.5785 17.6069 53.0075 14.1947 53.4907 13.2961 53.5921 12.3883 53.5783 11.4933 53.4493L9.17933 40.956C11.652 42.5133 16.2613 43.3333 20.682 43.3333 25.1027 43.3333 29.712 42.5133 32.1847 40.956L29.3633 56.1933C28.652 59.5053 23.6187 60 20.682 60 17.1487 60 12.8087 59.3487 12.0333 56.306 11.5631 56.2741 11.0955 56.2117 10.6333 56.1193L10.7 56.48C11.2 58.694 13.3333 61.3333 20.682 61.3333 28.072 61.3333 30.1907 58.6907 30.6707 56.4547L33.894 39.0487C33.9729 38.8183 34.0139 38.5768 34.0153 38.3333ZM27.41 45.3693C27.9438 45.2206 28.4971 45.5327 28.6459 46.0665 28.6949 46.2425 28.6949 46.4286 28.646 46.6047 28.5541 46.9419 28.2906 47.2055 27.9533 47.2973 27.4221 47.4483 26.869 47.1401 26.718 46.6089 26.6672 46.4301 26.6672 46.2407 26.718 46.062 26.8099 45.7249 27.0731 45.4615 27.41 45.3693ZM7.44533 51.316C5.61467 49.0347 5.84533 45.37 7.95867 41.6893L10.074 53.1113C9.0454 52.774 8.1338 52.1514 7.44533 51.316ZM20.682 42C14.29 42 9.408 40.3233 8.76067 38.696L8.68733 38.302C8.748 36.5793 13.8547 34.6667 20.682 34.6667 27.5093 34.6667 32.6153 36.5793 32.676 38.302L32.6033 38.696C31.956 40.3233 27.0733 42 20.682 42Z" transform="matrix(1.03125 0 0 1 327 287)"/><path d="M56.3033 47.514 58.5073 47.9313 58.82 46.2647C59.1443 44.5267 57.9996 42.8545 56.262 42.528L52.888 41.946 51.1867 39.4467 57.958 3.33333 56.6 3.33333 49.95 38.806 47.5413 38.3167 54.1167 3.33333 52.76 3.33333 46.16 38.444 43.6567 40.148 40.27 39.5053C38.5364 39.1834 36.8683 40.3222 36.5367 42.054L36.2253 43.7167 39.3247 44.298C39.108 46.9733 38 52.8073 32.7593 59.5927L31.9333 60.6667 37.22 60.6667 37.406 60.3053C37.8735 59.4015 38.4083 58.5342 39.006 57.7107 39.0253 57.684 39.03 57.688 39.0167 57.718 38.6073 58.6513 38.362 59.6567 38.9313 60.404L39.1313 60.6667 42.9887 60.6667C43.886 60.6667 44.5807 59.6 45.46 58.25 45.8755 57.5529 46.3633 56.9015 46.9153 56.3067 46.9233 56.2993 46.928 56.302 46.926 56.3133 46.8445 56.6674 46.7439 57.0168 46.6247 57.36 46.3107 58.318 45.9867 59.3087 46.3847 60.0213 46.5668 60.3437 46.8789 60.572 47.2413 60.648L50.0413 60.6667 50.1413 60.6593C51.7687 60.4127 52.1653 58.38 52.516 56.5867 52.6227 56.0413 52.7433 55.4253 52.8973 54.92 52.9033 54.9007 52.9093 54.9013 52.9107 54.92 53.0032 56.5993 53.0005 58.2824 52.9027 59.9613L52.8667 60.6667 58.9707 60.6667 58.594 59.7473C57.0787 55.8468 56.3019 51.6985 56.3033 47.514ZM37.7807 42.652 37.8473 42.296C38.0303 41.2923 38.9924 40.627 39.9961 40.81 40.0065 40.8119 40.0169 40.8139 40.0273 40.816L43.952 41.5607 46.9073 39.548 50.082 40.194 52.104 43.164 56.0293 43.84C57.0321 44.0219 57.6976 44.9822 57.5158 45.985 57.5135 45.9973 57.5111 46.0097 57.5087 46.022L57.442 46.3727 55.398 45.986 40.7167 43.204 40.7167 43.204 40.1887 43.1053 40.15 43.098 40.15 43.098ZM54.2667 59.3333C54.526 53.3847 53.842 53.0153 53.5073 52.8347 53.2242 52.6803 52.8769 52.7065 52.62 52.9013 51.7593 53.5013 51.4907 54.874 51.206 56.33 50.958 57.5967 50.6507 59.1733 49.9793 59.33L47.5333 59.33C47.5683 58.7948 47.6885 58.2687 47.8893 57.7713 48.2307 56.7273 48.618 55.5447 47.7253 55.0093 46.4513 54.2813 45.3767 55.926 44.34 57.5193 43.9652 58.1775 43.5104 58.7868 42.986 59.3333L39.9193 59.3333C40.0699 58.5833 40.3525 57.8659 40.754 57.2147 41.232 56.314 41.5487 55.7193 41.1607 55.2147 40.9213 54.9249 40.5259 54.8161 40.172 54.9427 38.7127 55.324 37.0387 58.174 36.4113 59.33L34.6167 59.33C39.2973 52.8413 40.3973 47.2753 40.6387 44.5427L54.972 47.2587C54.9477 51.3703 55.6338 55.4553 57 59.3333Z" transform="matrix(1.03125 0 0 1 327 287)"/></g></g></g><path d="M282.5 309.667C282.5 307.918 283.918 306.5 285.667 306.5L298.333 306.5C300.082 306.5 301.5 307.918 301.5 309.667L301.5 335.333C301.5 337.082 300.082 338.5 298.333 338.5L285.667 338.5C283.918 338.5 282.5 337.082 282.5 335.333Z" stroke="#2F528F" stroke-width="1.33333" stroke-miterlimit="8" fill="#44546A" fill-rule="evenodd"/><path d="M426.5 309.667C426.5 307.918 427.918 306.5 429.667 306.5L442.333 306.5C444.082 306.5 445.5 307.918 445.5 309.667L445.5 335.333C445.5 337.082 444.082 338.5 442.333 338.5L429.667 338.5C427.918 338.5 426.5 337.082 426.5 335.333Z" stroke="#2F528F" stroke-width="1.33333" stroke-miterlimit="8" fill="#44546A" fill-rule="evenodd"/><text font-family="Calibri,Calibri_MSFontService,sans-serif" font-weight="700" font-size="24" transform="translate(89.6192 25)">x</text><path d="M44.5001 32.1667 141.3 32.1668 141.3 32.8335 44.5001 32.8334ZM139.967 28.5002 147.967 32.5002 139.967 36.5001Z" fill="#4472C4"/><path d="M44.8334 32.5001 44.8335 119.7 44.1668 119.7 44.1667 32.5001ZM48.5001 118.367 44.5002 126.367 40.5001 118.367Z" fill="#4472C4"/><path d="M44.7653 32.2981 87.8269 88.8604 87.2965 89.2643 44.2348 32.702ZM89.9367 85.5785 91.6 94.3667 83.5714 90.4244Z" fill="#4472C4"/><text font-family="Calibri,Calibri_MSFontService,sans-serif" font-weight="700" font-size="24" transform="translate(17.7191 81)">y<tspan font-size="24" x="55.8585" y="-14">z</tspan></text><path d="M327.5 110.5 327.5 284.513" stroke="#4472C4" stroke-width="2.66667" stroke-miterlimit="8" fill="none" fill-rule="evenodd"/><path d="M393.5 110.5 393.5 284.513" stroke="#4472C4" stroke-width="2.66667" stroke-miterlimit="8" fill="none" fill-rule="evenodd"/><path d="M316.5 91.5001C316.5 83.7681 322.544 77.5001 330 77.5001 337.456 77.5001 343.5 83.7681 343.5 91.5001 343.5 99.232 337.456 105.5 330 105.5 322.544 105.5 316.5 99.232 316.5 91.5001ZM323.25 91.5001C323.25 95.5041 326.272 98.7501 330 98.7501 333.728 98.7501 336.75 95.5041 336.75 91.5001 336.75 87.496 333.728 84.25 330 84.25 326.272 84.25 323.25 87.496 323.25 91.5001Z" stroke="#2F528F" stroke-width="1.33333" stroke-miterlimit="8" fill="#FFD966" fill-rule="evenodd"/><path d="M381.5 91.5001C381.5 83.7681 387.544 77.5001 395 77.5001 402.456 77.5001 408.5 83.7681 408.5 91.5001 408.5 99.232 402.456 105.5 395 105.5 387.544 105.5 381.5 99.232 381.5 91.5001ZM388.25 91.5001C388.25 95.5041 391.272 98.7501 395 98.7501 398.728 98.7501 401.75 95.5041 401.75 91.5001 401.75 87.496 398.728 84.25 395 84.25 391.272 84.25 388.25 87.496 388.25 91.5001Z" stroke="#2F528F" stroke-width="1.33333" stroke-miterlimit="8" fill="#FFD966" fill-rule="evenodd"/><path d="M410.167 134.833 410.167 264.424 406.833 264.424 406.833 134.833ZM403.5 136.5 408.5 126.5 413.5 136.5ZM413.5 262.757 408.5 272.757 403.5 262.757Z" fill="#00B050"/><path d="M454.999 138 1096.33 138 1096.33 142 454.999 142ZM457 146 445 140 457 134ZM1094.33 134 1106.33 140 1094.33 146Z" fill="#00B050"/></g></svg>